<?xml version="1.0" encoding="UTF-8" standalone="no"?>
<!-- Created with Inkscape (http://www.inkscape.org/) -->

<svg
   version="1.1"
   id="svg2"
   xml:space="preserve"
   width="1600"
   height="1066.6667"
   viewBox="0 0 1600 1066.6667"
   sodipodi:docname="grnd.eps"
   xmlns:inkscape="http://www.inkscape.org/namespaces/inkscape"
   xmlns:sodipodi="http://sodipodi.sourceforge.net/DTD/sodipodi-0.dtd"
   xmlns="http://www.w3.org/2000/svg"
   xmlns:svg="http://www.w3.org/2000/svg"><defs
     id="defs6"><clipPath
       clipPathUnits="userSpaceOnUse"
       id="clipPath16"><path
         d="m 12000,0 c 0,1085.18 0,2170.36 0,3255.54 0,838.83 0,1677.66 0,2516.5 0,742.65 0,1485.3 0,2227.96 -874.6,0 -1749.1,0 -2623.69,0 -2453.6,0 -4907.18,0 -7360.77,0 C 1343.7,8000 671.848,8000 0,8000 0,7257.34 0,6514.69 0,5772.04 0,4933.2 0,4094.37 0,3255.54 0,2170.36 0,1085.18 0,0 671.848,0 1343.7,0 2015.54,0 4469.13,0 6922.71,0 9376.31,0 10250.9,0 11125.4,0 12000,0"
         id="path14" /></clipPath></defs><sodipodi:namedview
     id="namedview4"
     pagecolor="#ffffff"
     bordercolor="#666666"
     borderopacity="1.0"
     inkscape:pageshadow="2"
     inkscape:pageopacity="0.0"
     inkscape:pagecheckerboard="0" /><g
     id="g8"
     inkscape:groupmode="layer"
     inkscape:label="ink_ext_XXXXXX"
     transform="matrix(1.3333333,0,0,-1.3333333,0,1066.6667)"><g
       id="g10"
       transform="scale(0.1)"><g
         id="g12"
         clip-path="url(#clipPath16)"><g
           id="g18"
           transform="matrix(10,0,0,-10,-75910,85910)"><path
             d="m 8790.9817,8590.9908 c 0,-108.5099 0,-217.0382 0,-325.5481 -87.4525,0 -174.905,0 -262.3575,0 0,108.5099 0,217.0382 0,325.5481 87.4525,0 174.905,0 262.3575,0 z"
             style="fill:#ffffff;fill-opacity:1;fill-rule:nonzero;stroke:none"
             id="path20" /><path
             d="m 8790.9817,8265.4427 c -43.7263,0 -87.4525,0 -131.1788,0 0,-10.4921 -0.1648,-19.3912 -0.4394,-27.1184 44.2755,-1.3 87.8919,-4.3396 131.6182,-4.3396 0,10.4738 0,20.9659 0,31.458 z"
             style="fill:#ffffff;fill-opacity:1;fill-rule:nonzero;stroke:none"
             id="path22" /><path
             d="m 8790.9817,8233.9847 c -43.7263,0 -87.3427,3.0396 -131.6182,4.3396 -0.2747,-7.7088 -0.6775,-14.2458 -1.1536,-19.9954 45.6672,-4.7425 89.0455,-15.8022 132.7718,-15.8022 0,10.4738 0,20.9659 0,31.458 z"
             style="fill:#ffffff;fill-opacity:1;fill-rule:nonzero;stroke:none"
             id="path24" /><path
             d="m 8790.9817,8202.5267 c 0,-20.9659 0,-41.9501 0,-62.916 -21.8631,0 -43.4333,8.8441 -65.8091,19.5926 0.055,16.0769 0.1098,32.1538 0.1648,49.4392 22.0096,-3.3509 43.7812,-6.1158 65.6443,-6.1158 z"
             style="fill:#ffffff;fill-opacity:1;fill-rule:nonzero;stroke:none"
             id="path26" /><path
             d="m 8725.3374,8208.6425 c -0.055,-17.2854 -0.1099,-33.3623 -0.1648,-49.4392 -22.3575,10.7484 -45.5024,23.3829 -70.4967,30.9819 1.2818,8.3314 2.5635,16.6628 3.534,28.1437 22.8336,-2.3804 45.0996,-6.3172 67.1275,-9.6864 z"
             style="fill:#f5f5ff;fill-opacity:1;fill-rule:nonzero;stroke:none"
             id="path28" /><path
             d="m 8659.8029,8265.4427 c -43.7262,0 -87.4525,0 -131.1787,0 0,-10.4921 -1.7029,-21.6068 -4.6876,-33.1793 46.2531,6.9399 91.1696,7.361 135.4269,6.0609 0.2746,7.7272 0.4394,16.6263 0.4394,27.1184 z"
             style="fill:#ffffff;fill-opacity:1;fill-rule:nonzero;stroke:none"
             id="path30" /><path
             d="m 8659.3635,8238.3243 c -44.2573,1.3001 -89.1738,0.879 -135.4269,-6.0609 -2.9847,-11.5724 -7.2511,-23.6209 -12.3598,-35.9807 52.9549,25.2323 100.9476,26.807 146.6331,22.0462 0.4761,5.7496 0.8789,12.2866 1.1536,19.9954 z"
             style="fill:#fafaff;fill-opacity:1;fill-rule:nonzero;stroke:none"
             id="path32" /><path
             d="m 8658.2099,8218.3289 c -0.9705,-11.4809 -2.2522,-19.8123 -3.534,-28.1437 -24.9943,7.599 -51.8196,10.1625 -81.5564,0.7141 5.2735,8.1483 10.547,16.2966 14.5022,27.6493 24.3167,2.9481 47.7363,2.1607 70.5882,-0.2197 z"
             style="fill:#eeeeff;fill-opacity:1;fill-rule:nonzero;stroke:none"
             id="path34" /><path
             d="m 8587.6217,8218.5486 c -3.9552,-11.3527 -9.2287,-19.501 -14.5022,-27.6493 -29.7551,-9.4301 -62.4033,-30.8538 -99.025,-71.2291 13.6416,25.9464 27.2648,51.9112 37.4823,76.6125 26.4774,12.6161 51.7098,19.3179 76.0449,22.2659 z"
             style="fill:#eaeaff;fill-opacity:1;fill-rule:nonzero;stroke:none"
             id="path36" /><path
             d="m 8790.9817,8139.6107 c 0,-20.9659 0,-41.9501 0,-62.916 -21.8631,0 -43.2502,14.9233 -65.9556,33.0693 0.037,17.2854 0.092,33.3623 0.1465,49.4393 22.3758,-10.7485 43.946,-19.5926 65.8091,-19.5926 z"
             style="fill:#ffffff;fill-opacity:1;fill-rule:nonzero;stroke:none"
             id="path38" /><path
             d="m 8725.1726,8159.2033 c -0.055,-16.077 -0.1099,-32.1539 -0.1465,-49.4393 -22.7054,18.1277 -46.7292,39.4598 -73.8659,52.2957 0.9522,11.4809 2.2339,19.8124 3.5157,28.1255 24.9943,-7.599 48.1392,-20.2335 70.4967,-30.9819 z"
             style="fill:#e0e0ff;fill-opacity:1;fill-rule:nonzero;stroke:none"
             id="path40" /><path
             d="m 8790.9817,8076.6947 c -21.8631,0 -43.2502,14.9233 -65.9556,33.0693 -0.018,-8.661 -0.037,-17.615 -0.055,-27.0268 22.8336,-20.563 44.1474,-37.5005 66.0105,-37.5005 0,10.4921 0,20.9842 0,31.458 z"
             style="fill:#ffffff;fill-opacity:1;fill-rule:nonzero;stroke:none"
             id="path42" /><path
             d="m 8790.9817,8045.2367 c -21.8631,0 -43.1769,16.9375 -66.0105,37.5005 0,-9.4117 -0.018,-19.2813 -0.018,-29.7734 22.8703,-21.4786 44.1658,-39.1851 66.0289,-39.1851 0,10.4921 0,20.9842 0,31.458 z"
             style="fill:#ffffff;fill-opacity:1;fill-rule:nonzero;stroke:none"
             id="path44" /><path
             d="m 8725.0261,8109.764 c -22.7054,18.1277 -46.7292,39.4598 -73.8659,52.2957 -0.4944,-5.7496 -0.8789,-12.2865 -1.1719,-19.9954 27.8508,-14.5571 52.1676,-38.7457 74.9829,-59.3271 0.018,9.4118 0.037,18.3658 0.055,27.0268 z"
             style="fill:#cbcbff;fill-opacity:1;fill-rule:nonzero;stroke:none"
             id="path46" /><path
             d="m 8724.9712,8082.7372 c -22.8153,20.5814 -47.1321,44.77 -74.9829,59.3271 -0.2746,-7.7272 -0.4394,-16.6262 -0.4394,-27.1183 28.1254,-15.198 52.552,-40.4853 75.4039,-61.9822 0,10.4921 0.018,20.3617 0.018,29.7734 z"
             style="fill:#c4c4ff;fill-opacity:1;fill-rule:nonzero;stroke:none"
             id="path48" /><path
             d="m 8654.6759,8190.1852 c -1.2818,-8.3131 -2.5635,-16.6446 -3.5157,-28.1255 -27.1366,12.8176 -57.4044,17.1207 -92.5612,1.2086 3.9551,11.3527 9.2286,19.501 14.5205,27.631 29.7368,9.4484 56.5621,6.8849 81.5564,-0.7141 z"
             style="fill:#cacaff;fill-opacity:1;fill-rule:nonzero;stroke:none"
             id="path50" /><path
             d="m 8573.1195,8190.8993 c -5.2919,-8.13 -10.5654,-16.2783 -14.5205,-27.631 -35.1568,-15.9305 -75.2209,-52.0943 -121.9867,-120.2289 10.2174,24.7196 23.859,50.666 37.4822,76.6308 36.6217,40.3753 69.2699,61.799 99.025,71.2291 z"
             style="fill:#bdbdff;fill-opacity:1;fill-rule:nonzero;stroke:none"
             id="path52" /><path
             d="m 8651.1602,8162.0597 c -27.1366,12.8176 -57.4044,17.1207 -92.5612,1.2086 -1.9776,-5.6764 -3.6256,-12.1584 -4.7791,-19.849 36.9512,18.0728 68.3177,13.1838 96.1684,-1.355 0.293,7.7089 0.6775,14.2458 1.1719,19.9954 z"
             style="fill:#a6a6ff;fill-opacity:1;fill-rule:nonzero;stroke:none"
             id="path54" /><path
             d="m 8649.9883,8142.0643 c -27.8507,14.5388 -59.2172,19.4278 -96.1684,1.355 -1.1536,-7.6722 -1.8128,-16.553 -1.8128,-27.0451 37.6287,18.8785 69.4346,13.7698 97.5418,-1.4282 0,10.4921 0.1648,19.3911 0.4394,27.1183 z"
             style="fill:#9a9aff;fill-opacity:1;fill-rule:nonzero;stroke:none"
             id="path56" /><path
             d="m 8558.599,8163.2683 c -35.1568,-15.9305 -75.2209,-52.0943 -121.9867,-120.2289 -5.1088,-12.3415 -9.3752,-24.3901 -12.3598,-35.9625 50.1167,77.2717 92.6161,118.2879 129.5674,136.3424 1.1535,7.6906 2.8015,14.1726 4.7791,19.849 z"
             style="fill:#9090ff;fill-opacity:1;fill-rule:nonzero;stroke:none"
             id="path58" /><path
             d="m 8553.8199,8143.4193 c -36.9513,-18.0545 -79.4507,-59.0707 -129.5674,-136.3424 -2.9847,-11.5907 -4.6876,-22.6871 -4.6876,-33.1792 51.3802,80.7324 94.8134,123.5981 132.4422,142.4765 0,10.4921 0.6592,19.3729 1.8128,27.0451 z"
             style="fill:#8181ff;fill-opacity:1;fill-rule:nonzero;stroke:none"
             id="path60" /><path
             d="m 8790.9817,8013.7787 c 0,-18.5672 0,-37.1344 0,-55.6833 -21.8631,0 -43.2502,14.9234 -65.9556,33.0511 -0.037,22.2476 -0.073,43.2502 -0.073,61.8173 22.8703,-21.4786 44.1658,-39.1851 66.0289,-39.1851 z"
             style="fill:#ffffff;fill-opacity:1;fill-rule:nonzero;stroke:none"
             id="path62" /><path
             d="m 8724.9528,8052.9638 c -22.8519,21.4969 -47.2785,46.7842 -75.4039,61.9822 0,-9.2836 0.1648,-20.1419 0.4394,-32.1904 27.8508,-14.5388 52.1676,-38.7458 74.9829,-59.3271 0,10.3639 -0.018,20.2517 -0.018,29.5353 z"
             style="fill:#c1c1ff;fill-opacity:1;fill-rule:nonzero;stroke:none"
             id="path64" /><path
             d="m 8724.9712,8023.4285 c -22.8153,20.5813 -47.1321,44.7883 -74.9829,59.3271 0.293,-12.0486 0.6775,-25.2873 1.1719,-39.3134 27.1367,-12.8176 51.1605,-34.168 73.8659,-52.2957 -0.018,11.1147 -0.037,21.9364 -0.055,32.282 z"
             style="fill:#c3c3ff;fill-opacity:1;fill-rule:nonzero;stroke:none"
             id="path66" /><path
             d="m 8790.9817,7958.0954 c 0,-18.5671 0,-37.1343 0,-55.7015 -21.8631,0 -43.4333,8.8441 -65.8091,19.5926 -0.055,23.4562 -0.1099,46.9123 -0.1465,69.16 22.7054,-18.1277 44.0925,-33.0511 65.9556,-33.0511 z"
             style="fill:#ffffff;fill-opacity:1;fill-rule:nonzero;stroke:none"
             id="path68" /><path
             d="m 8725.0261,7991.1465 c 0.037,-22.2477 0.092,-45.7038 0.1465,-69.16 -22.3575,10.7301 -45.5024,23.3829 -70.4967,30.9819 -1.2818,31.22 -2.5635,62.4216 -3.5157,90.4738 27.1367,-12.8176 51.1605,-34.168 73.8659,-52.2957 z"
             style="fill:#c9c9ff;fill-opacity:1;fill-rule:nonzero;stroke:none"
             id="path70" /><path
             d="m 8649.5489,8114.946 c -28.1072,15.198 -59.9131,20.3067 -97.5418,1.4282 0,-9.2836 0.6592,-20.1602 1.8128,-32.2453 36.9512,18.0544 68.3177,13.1654 96.1684,-1.3733 -0.2746,12.0485 -0.4394,22.9068 -0.4394,32.1904 z"
             style="fill:#9696ff;fill-opacity:1;fill-rule:nonzero;stroke:none"
             id="path72" /><path
             d="m 8649.9883,8082.7556 c -27.8507,14.5387 -59.2172,19.4277 -96.1684,1.3733 1.1535,-12.1035 2.8015,-25.3788 4.7791,-39.4782 35.1568,15.9304 65.4246,11.6091 92.5612,-1.2085 -0.4944,14.0261 -0.8789,27.2648 -1.1719,39.3134 z"
             style="fill:#9898ff;fill-opacity:1;fill-rule:nonzero;stroke:none"
             id="path74" /><path
             d="m 8552.0071,8116.3742 c -37.6288,-18.8784 -81.062,-61.7441 -132.4422,-142.4765 0,-9.2836 1.7029,-17.9446 4.6876,-26.1296 50.1167,77.2717 92.6161,118.288 129.5674,136.3608 -1.1536,12.0851 -1.8128,22.9617 -1.8128,32.2453 z"
             style="fill:#7b7bff;fill-opacity:1;fill-rule:nonzero;stroke:none"
             id="path76" /><path
             d="m 8553.8199,8084.1289 c 1.1535,-12.1035 2.8015,-25.3788 4.7791,-39.4782 -17.5784,-7.9652 -36.3836,-20.9842 -56.6354,-40.5401 -3.3143,11.8471 -6.0609,23.2547 -7.9835,34.0398 21.4969,22.1561 41.3641,36.9329 59.8398,45.9785 z"
             style="fill:#7e7eff;fill-opacity:1;fill-rule:nonzero;stroke:none"
             id="path78" /><path
             d="m 8493.9801,8038.1504 c 1.9226,-10.7851 4.6692,-22.1927 7.9835,-34.0398 -20.2701,-19.5377 -41.9684,-45.6123 -65.3513,-79.6705 -5.1088,7.4159 -9.3752,15.1248 -12.3598,23.328 25.0675,38.6359 48.2124,68.2079 69.7276,90.3823 z"
             style="fill:#7777ff;fill-opacity:1;fill-rule:nonzero;stroke:none"
             id="path80" /><path
             d="m 8651.1602,8043.4422 c 0.9522,-28.0522 2.2339,-59.2538 3.5157,-90.4738 -24.9943,7.599 -51.8196,10.1625 -81.5564,0.7141 -5.2919,31.3848 -10.5654,62.7879 -14.5205,90.9682 35.1568,15.9304 65.4246,11.6091 92.5612,-1.2085 z"
             style="fill:#9f9fff;fill-opacity:1;fill-rule:nonzero;stroke:none"
             id="path82" /><path
             d="m 8558.599,8044.6507 c 3.9551,-28.1803 9.2286,-59.5834 14.5205,-90.9682 -14.8867,-4.7242 -30.4875,-12.433 -46.9307,-24.0238 -8.8075,25.3971 -17.615,50.776 -24.2252,74.4519 20.2518,19.5559 39.057,32.5749 56.6354,40.5401 z"
             style="fill:#8585ff;fill-opacity:1;fill-rule:nonzero;stroke:none"
             id="path84" /><path
             d="m 8501.9636,8004.1106 c 6.6102,-23.6759 15.4177,-49.0548 24.2252,-74.4519 -16.4614,-11.5724 -33.7834,-27.0267 -52.0943,-47.2053 -13.6232,13.5683 -27.2648,27.155 -37.4822,41.9867 23.3829,34.0582 45.0812,60.1328 65.3513,79.6705 z"
             style="fill:#7e7eff;fill-opacity:1;fill-rule:nonzero;stroke:none"
             id="path86" /><path
             d="m 8790.9817,7902.3939 c 0,-18.5672 0,-37.1343 0,-55.7015 -21.8631,0 -43.6347,2.7649 -65.6443,6.1158 -0.055,22.2476 -0.1099,45.7038 -0.1648,69.1783 22.3758,-10.7485 43.946,-19.5926 65.8091,-19.5926 z"
             style="fill:#ffffff;fill-opacity:1;fill-rule:nonzero;stroke:none"
             id="path88" /><path
             d="m 8725.1726,7921.9865 c 0.055,-23.4745 0.1098,-46.9307 0.1648,-69.1783 -22.0279,3.3692 -44.2939,7.306 -67.1275,9.6864 -0.9705,28.0522 -2.2522,59.2722 -3.534,90.4738 24.9943,-7.599 48.1392,-20.2518 70.4967,-30.9819 z"
             style="fill:#dadaff;fill-opacity:1;fill-rule:nonzero;stroke:none"
             id="path90" /><path
             d="m 8790.9817,7846.6924 c 0,-18.5672 0,-37.1344 0,-55.7016 -21.8631,0 -43.7263,0 -65.5894,0 0,18.5672 -0.018,39.5881 -0.055,61.8174 22.0096,-3.3509 43.7812,-6.1158 65.6443,-6.1158 z"
             style="fill:#ffffff;fill-opacity:1;fill-rule:nonzero;stroke:none"
             id="path92" /><path
             d="m 8725.3374,7852.8082 c 0.037,-22.2293 0.055,-43.2502 0.055,-61.8174 -21.8631,0 -43.7262,0 -65.5894,0 0,18.5672 -0.6408,43.4516 -1.593,71.5038 22.8336,-2.3804 45.0996,-6.3172 67.1275,-9.6864 z"
             style="fill:#efefff;fill-opacity:1;fill-rule:nonzero;stroke:none"
             id="path94" /><path
             d="m 8654.6759,7952.9684 c 1.2818,-31.2016 2.5635,-62.4216 3.534,-90.4738 -22.8519,2.3804 -46.2715,3.1678 -70.5882,0.2198 -3.9552,28.1803 -9.2287,59.5834 -14.5022,90.9681 29.7368,9.4484 56.5621,6.8849 81.5564,-0.7141 z"
             style="fill:#b9b9ff;fill-opacity:1;fill-rule:nonzero;stroke:none"
             id="path96" /><path
             d="m 8573.1195,7953.6825 c 5.2735,-31.3847 10.547,-62.7878 14.5022,-90.9681 -12.1584,-1.4649 -24.5549,-3.8819 -37.2076,-7.5075 -6.6103,23.6942 -15.4178,49.073 -24.2253,74.4518 16.4432,11.5908 32.044,19.2996 46.9307,24.0238 z"
             style="fill:#9f9fff;fill-opacity:1;fill-rule:nonzero;stroke:none"
             id="path98" /><path
             d="m 8526.1888,7929.6587 c 8.8075,-25.3788 17.615,-50.7576 24.2253,-74.4518 -12.6711,-3.6072 -25.5986,-8.4413 -38.8373,-14.7585 -10.2175,14.8318 -23.8407,28.4184 -37.4823,42.005 18.3109,20.1786 35.6329,35.6329 52.0943,47.2053 z"
             style="fill:#9898ff;fill-opacity:1;fill-rule:nonzero;stroke:none"
             id="path100" /><path
             d="m 8658.2099,7862.4946 c 0.9522,-28.0522 1.593,-52.9366 1.593,-71.5038 -21.8631,0 -43.7262,0 -65.5893,0 0,18.5672 -2.6368,43.5432 -6.5919,71.7236 24.3167,2.948 47.7363,2.1606 70.5882,-0.2198 z"
             style="fill:#dadaff;fill-opacity:1;fill-rule:nonzero;stroke:none"
             id="path102" /><path
             d="m 8587.6217,7862.7144 c 3.9551,-28.1804 6.5919,-53.1564 6.5919,-71.7236 -21.8632,0 -43.7263,0 -65.5894,0 0,18.5672 -6.8117,34.6441 -17.0474,49.4576 26.4774,12.6161 51.7098,19.3179 76.0449,22.266 z"
             style="fill:#c9c9ff;fill-opacity:1;fill-rule:nonzero;stroke:none"
             id="path104" /><path
             d="m 8528.6242,8590.9908 c 0,-54.2549 0,-108.5099 0,-162.7832 -61.3413,0 -117.1527,8.1849 -172.3781,17.2671 -6.8849,44.6784 -11.6457,91.2612 -11.6457,145.5161 61.3412,0 122.6825,0 184.0238,0 z"
             style="fill:#ffffff;fill-opacity:1;fill-rule:nonzero;stroke:none"
             id="path106" /><path
             d="m 8344.6004,8590.9908 c 0,-54.2549 4.7608,-100.8377 11.6457,-145.5161 -55.2255,9.1005 -109.865,19.0982 -168.8625,22.7421 -16.7727,31.1833 -26.807,68.5191 -26.807,122.774 61.3412,0 122.6825,0 184.0238,0 z"
             style="fill:#ffffff;fill-opacity:1;fill-rule:nonzero;stroke:none"
             id="path108" /><path
             d="m 8160.5766,8590.9908 c 0,-27.1366 2.5085,-50.0251 7.1046,-70.0389 -60.9202,0.8423 -123.1953,-0.2929 -188.3086,-5.6214 -2.2522,23.1815 -2.8015,48.5237 -2.8015,75.6603 61.3229,0 122.6642,0 184.0055,0 z"
             style="fill:#ffffff;fill-opacity:1;fill-rule:nonzero;stroke:none"
             id="path110" /><path
             d="m 7976.5711,8590.9908 c 0,-27.1366 0.5493,-52.4788 2.8015,-75.6603 -65.1316,-5.3101 -133.0647,-14.8134 -205.301,-30.7072 10.4006,41.4923 18.4757,79.2309 18.4757,106.3675 61.3412,0 122.6825,0 184.0238,0 z"
             style="fill:#ffffff;fill-opacity:1;fill-rule:nonzero;stroke:none"
             id="path112" /><path
             d="m 8167.6812,8520.9519 c 4.6143,-20.0137 11.3161,-37.1526 19.7024,-52.7351 -58.9975,3.6255 -122.3712,0.9155 -195.0286,-15.4178 -6.7933,18.3841 -10.7485,39.3683 -12.9824,62.5315 65.1133,5.3285 127.3884,6.4637 188.3086,5.6214 z"
             style="fill:#fcf3ff;fill-opacity:1;fill-rule:nonzero;stroke:none"
             id="path114" /><path
             d="m 7979.3726,8515.3305 c 2.2339,-23.1632 6.1891,-44.1474 12.9824,-62.5315 -72.6574,-16.3332 -154.6166,-46.308 -250.8217,-97.1572 9.3751,42.2064 22.1378,87.4708 32.5383,128.9815 72.2363,15.8938 140.1694,25.3971 205.301,30.7072 z"
             style="fill:#fbecff;fill-opacity:1;fill-rule:nonzero;stroke:none"
             id="path116" /><path
             d="m 8528.6242,8428.2076 c 0,-54.255 0,-108.51 0,-162.7649 -61.3413,0 -106.569,20.9659 -148.0797,46.0517 -8.4413,46.5827 -17.4319,89.3202 -24.2984,133.9803 55.2254,-9.0822 111.0368,-17.2671 172.3781,-17.2671 z"
             style="fill:#ffffff;fill-opacity:1;fill-rule:nonzero;stroke:none"
             id="path118" /><path
             d="m 8356.2461,8445.4747 c 6.8665,-44.6601 15.8571,-87.3976 24.2984,-133.9803 -41.5106,25.1041 -79.3225,54.3282 -125.8503,70.8263 -27.0085,29.6635 -50.5379,54.6944 -67.3106,85.8961 58.9975,-3.6439 113.637,-13.6416 168.8625,-22.7421 z"
             style="fill:#fdf9ff;fill-opacity:1;fill-rule:nonzero;stroke:none"
             id="path120" /><path
             d="m 8187.3836,8468.2168 c 8.3864,-15.6009 18.4573,-29.6636 29.81,-43.5249 -54.5479,8.7526 -116.4385,6.7567 -194.7356,-18.8601 -13.6416,12.7809 -23.2914,28.5832 -30.103,46.9672 72.6574,16.3333 136.0311,19.0433 195.0286,15.4178 z"
             style="fill:#fbebff;fill-opacity:1;fill-rule:nonzero;stroke:none"
             id="path122" /><path
             d="m 7992.355,8452.799 c 6.8116,-18.384 16.4614,-34.1863 30.103,-46.9672 -78.3154,-25.6352 -173.019,-74.8913 -293.193,-160.7142 -3.0945,29.2058 2.9115,68.3361 12.2683,110.5242 96.2051,50.8492 178.1643,80.824 250.8217,97.1572 z"
             style="fill:#f8deff;fill-opacity:1;fill-rule:nonzero;stroke:none"
             id="path124" /><path
             d="m 8217.1936,8424.6919 c 11.3527,-13.8613 23.9872,-27.5395 37.5006,-42.3712 -46.5278,16.5163 -101.7716,20.3067 -178.1643,-5.4383 -22.7787,6.3721 -40.4303,16.1501 -54.0719,28.9494 78.2971,25.6168 140.1877,27.6127 194.7356,18.8601 z"
             style="fill:#fae7ff;fill-opacity:1;fill-rule:nonzero;stroke:none"
             id="path126" /><path
             d="m 8022.458,8405.8318 c 13.6416,-12.7993 31.2932,-22.5773 54.0719,-28.9494 -76.3745,-25.7634 -173.8979,-81.0804 -304.9485,-182.7787 -27.0268,2.5269 -39.2218,21.8082 -42.3164,51.0139 120.174,85.8229 214.8776,135.079 293.193,160.7142 z"
             style="fill:#f7d6ff;fill-opacity:1;fill-rule:nonzero;stroke:none"
             id="path128" /><path
             d="m 8528.6242,8265.4427 c -61.3413,0 -106.569,20.9659 -148.0797,46.0517 4.3763,-9.247 6.4271,-21.4237 6.6285,-35.816 35.6695,-25.452 76.6492,-45.6306 136.7636,-43.415 2.9847,11.5725 4.6876,22.6872 4.6876,33.1793 z"
             style="fill:#ffffff;fill-opacity:1;fill-rule:nonzero;stroke:none"
             id="path130" /><path
             d="m 8523.9366,8232.2634 c -60.1144,-2.2156 -101.0941,17.963 -136.7636,43.415 0.2015,-14.374 -1.4099,-30.9636 -4.3396,-49.0547 33.3074,-22.7237 71.8517,-38.4161 128.7434,-30.341 5.1087,12.3598 9.3751,24.4083 12.3598,35.9807 z"
             style="fill:#f8f8ff;fill-opacity:1;fill-rule:nonzero;stroke:none"
             id="path132" /><path
             d="m 8380.5445,8311.4944 c -41.5106,25.1041 -79.3225,54.3282 -125.8503,70.8263 14.0261,-6.5553 22.8885,-17.4319 27.6494,-31.6411 38.8372,-18.8236 69.1783,-49.5308 104.8294,-75.0012 -0.2014,14.3923 -2.2522,26.569 -6.6285,35.816 z"
             style="fill:#fdf7ff;fill-opacity:1;fill-rule:nonzero;stroke:none"
             id="path134" /><path
             d="m 8387.173,8275.6784 c -35.6511,25.4704 -65.9922,56.1776 -104.8294,75.0012 4.7791,-14.1909 5.4566,-31.7144 3.1128,-51.5084 35.9808,-20.0503 64.0696,-49.8054 97.377,-72.5475 2.9297,18.0911 4.5411,34.6807 4.3396,49.0547 z"
             style="fill:#f8f2ff;fill-opacity:1;fill-rule:nonzero;stroke:none"
             id="path136" /><path
             d="m 8511.5768,8196.2827 c -10.2175,-24.7013 -23.8407,-50.6661 -37.4823,-76.6125 -23.566,-12.9458 -44.7333,-19.3363 -64.4724,-21.0392 10.895,35.047 21.4786,70.0023 28.7297,101.2772 20.911,-5.7496 44.77,-7.6539 73.225,-3.6255 z"
             style="fill:#e9e9ff;fill-opacity:1;fill-rule:nonzero;stroke:none"
             id="path138" /><path
             d="m 8438.3518,8199.9082 c -7.2511,-31.2749 -17.8347,-66.2302 -28.7297,-101.2772 -19.7391,-1.6846 -38.0499,1.3184 -55.9396,7.2145 12.195,42.4628 23.2914,84.6143 29.1509,120.7782 16.6628,-11.3527 34.6257,-20.9659 55.5184,-26.7155 z"
             style="fill:#e9e8ff;fill-opacity:1;fill-rule:nonzero;stroke:none"
             id="path140" /><path
             d="m 8382.8334,8226.6237 c -5.8595,-36.1639 -16.9559,-78.3154 -29.1509,-120.7782 -35.761,11.7739 -69.7825,35.0469 -109.9382,55.2071 20.2701,49.7506 37.0245,98.5123 41.7121,138.1186 35.9808,-20.0503 64.0696,-49.8054 97.377,-72.5475 z"
             style="fill:#ebe5ff;fill-opacity:1;fill-rule:nonzero;stroke:none"
             id="path142" /><path
             d="m 8254.6942,8382.3207 c -46.5278,16.5163 -101.7716,20.3067 -178.1643,-5.4383 23.6759,-3.8636 39.8443,-11.664 50.0251,-22.5407 69.6361,22.1012 116.9513,15.1614 155.7886,-3.6621 -4.7609,14.2092 -13.6233,25.0858 -27.6494,31.6411 z"
             style="fill:#fae5ff;fill-opacity:1;fill-rule:nonzero;stroke:none"
             id="path144" /><path
             d="m 8282.3436,8350.6796 c -38.8373,18.8235 -86.1525,25.7633 -155.7886,3.6621 10.1809,-10.8766 14.3557,-24.8111 14.0628,-40.943 64.9485,16.1502 108.8395,5.8229 144.8386,-14.2275 2.3438,19.794 1.6663,37.3175 -3.1128,51.5084 z"
             style="fill:#f7e3ff;fill-opacity:1;fill-rule:nonzero;stroke:none"
             id="path146" /><path
             d="m 8076.5299,8376.8824 c 47.3335,-7.7089 64.6921,-31.2383 64.0879,-63.4837 -64.9485,-16.1318 -150.9362,-58.7228 -271.1101,-144.5456 -12.4697,11.3344 -41.8403,19.9954 -97.9263,25.2506 131.0506,101.6983 228.574,157.0153 304.9485,182.7787 z"
             style="fill:#f6d3ff;fill-opacity:1;fill-rule:nonzero;stroke:none"
             id="path148" /><path
             d="m 8285.4564,8299.1712 c -4.6876,-39.6063 -21.442,-88.368 -41.7121,-138.1186 -40.1373,20.1786 -86.4271,37.2076 -146.7246,36.4935 24.4632,42.6459 43.0121,83.6073 43.5981,115.8526 64.9485,16.1502 108.8395,5.8229 144.8386,-14.2275 z"
             style="fill:#efdeff;fill-opacity:1;fill-rule:nonzero;stroke:none"
             id="path150" /><path
             d="m 8140.6178,8313.3987 c -0.586,-32.2453 -19.1349,-73.2067 -43.5981,-115.8526 -30.1579,-0.3479 -63.8132,-5.1453 -101.9364,-16.2051 20.911,32.0623 35.1385,62.2568 30.689,85.9144 44.6418,23.4013 82.3804,38.0866 114.8455,46.1433 z"
             style="fill:#f4d7ff;fill-opacity:1;fill-rule:nonzero;stroke:none"
             id="path152" /><path
             d="m 8025.7723,8267.2554 c 4.4495,-23.6576 -9.778,-53.8521 -30.689,-85.9144 -38.1414,-11.0597 -80.769,-28.4001 -128.8716,-53.8155 11.3894,15.9671 15.784,29.9932 3.296,41.3276 60.0961,42.9022 111.6411,75.0194 156.2646,98.4023 z"
             style="fill:#f5d4ff;fill-opacity:1;fill-rule:nonzero;stroke:none"
             id="path154" /><path
             d="m 8474.0945,8119.6702 c -13.6232,-25.9648 -27.2648,-51.9112 -37.4822,-76.6308 -18.6954,-21.8265 -37.8119,-36.7132 -57.5326,-46.1799 8.4779,31.6045 19.6658,66.7246 30.5424,101.7715 19.7391,1.7029 40.9064,8.0934 64.4724,21.0392 z"
             style="fill:#b9b9ff;fill-opacity:1;fill-rule:nonzero;stroke:none"
             id="path156" /><path
             d="m 8409.6221,8098.631 c -10.8766,-35.0469 -22.0645,-70.167 -30.5424,-101.7715 -19.7208,-9.4667 -40.0275,-13.5134 -61.1216,-13.6599 10.2541,37.3907 23.5294,80.1648 35.7244,122.6459 17.8897,-5.8961 36.2005,-8.8991 55.9396,-7.2145 z"
             style="fill:#bbbaff;fill-opacity:1;fill-rule:nonzero;stroke:none"
             id="path158" /><path
             d="m 8353.6825,8105.8455 c -12.195,-42.4811 -25.4703,-85.2552 -35.7244,-122.6459 -42.1515,-0.2747 -87.3792,15.0515 -136.9467,33.8567 18.7137,43.5432 42.4812,94.2641 62.7329,143.9963 40.1557,-20.1602 74.1772,-43.4332 109.9382,-55.2071 z"
             style="fill:#c3bfff;fill-opacity:1;fill-rule:nonzero;stroke:none"
             id="path160" /><path
             d="m 8436.6123,8043.0394 c -5.1088,-12.3415 -9.3752,-24.3901 -12.3598,-35.9625 -17.0657,-24.7745 -35.5963,-42.4811 -55.4452,-54.5479 2.4903,13.5866 6.0426,28.5282 10.2724,44.3305 19.7207,9.4667 38.8372,24.3534 57.5326,46.1799 z"
             style="fill:#8888ff;fill-opacity:1;fill-rule:nonzero;stroke:none"
             id="path162" /><path
             d="m 8379.0797,7996.8595 c -4.2298,-15.8023 -7.7821,-30.7439 -10.2724,-44.3305 -19.849,-12.0669 -41.0346,-18.494 -63.4104,-20.6913 3.0945,15.3079 7.4525,32.6665 12.5612,51.3619 21.0941,0.1465 41.4008,4.1932 61.1216,13.6599 z"
             style="fill:#8d8dff;fill-opacity:1;fill-rule:nonzero;stroke:none"
             id="path164" /><path
             d="m 8424.2525,8007.0769 c -2.9847,-11.5907 -4.6876,-22.6871 -4.6876,-33.1792 -16.4614,-25.8732 -34.7723,-44.6601 -54.6944,-57.7157 0,10.4921 1.4465,22.7603 3.9368,36.347 19.8489,12.0668 38.3795,29.7734 55.4452,54.5479 z"
             style="fill:#7979ff;fill-opacity:1;fill-rule:nonzero;stroke:none"
             id="path166" /><path
             d="m 8368.8073,7952.529 c -2.4903,-13.5867 -3.9368,-25.8549 -3.9368,-36.347 -19.9222,-13.0557 -41.4374,-20.3983 -64.3443,-23.383 0,10.4921 1.7945,23.7492 4.8707,39.0387 22.3758,2.1973 43.5614,8.6244 63.4104,20.6913 z"
             style="fill:#7e7eff;fill-opacity:1;fill-rule:nonzero;stroke:none"
             id="path168" /><path
             d="m 8317.9581,7983.1996 c -42.1515,-0.2747 -87.3792,15.0515 -136.9467,33.8567 -9.3568,-21.7533 -17.4319,-41.7304 -23.1815,-58.8693 53.3029,-18.201 102.8336,-30.7256 147.567,-26.3493 3.0945,15.3079 7.4525,32.6665 12.5612,51.3619 z"
             style="fill:#9b9aff;fill-opacity:1;fill-rule:nonzero;stroke:none"
             id="path170" /><path
             d="m 8305.3969,7931.8377 c -44.7334,-4.3763 -94.2641,8.1483 -147.567,26.3493 -5.7496,-17.1572 -9.1554,-31.4763 -9.1554,-41.9684 54.8043,-17.9263 106.0563,-29.3706 151.8517,-23.4196 0,10.4921 1.7945,23.7492 4.8707,39.0387 z"
             style="fill:#8d8dff;fill-opacity:1;fill-rule:nonzero;stroke:none"
             id="path172" /><path
             d="m 8243.7443,8161.0526 c -20.2517,-49.7322 -44.0192,-100.4531 -62.7329,-143.9963 -49.5674,18.8052 -103.4927,41.0895 -163.0945,54.6944 24.2619,38.8739 54.6395,83.1678 79.1028,125.7954 60.2975,0.7141 106.5873,-16.3149 146.7246,-36.4935 z"
             style="fill:#d9cfff;fill-opacity:1;fill-rule:nonzero;stroke:none"
             id="path174" /><path
             d="m 8097.0197,8197.5461 c -24.4633,-42.6276 -54.8409,-86.9215 -79.1028,-125.7954 -29.81,6.8117 -61.0117,11.4443 -93.8063,12.3782 22.3941,31.1833 50.0434,65.1316 70.9727,97.2121 38.1232,11.0598 71.7785,15.8572 101.9364,16.2051 z"
             style="fill:#efdeff;fill-opacity:1;fill-rule:nonzero;stroke:none"
             id="path176" /><path
             d="m 7995.0833,8181.341 c -20.9293,-32.0805 -48.5786,-66.0288 -70.9727,-97.2121 -32.7947,0.9521 -67.1642,-1.7945 -103.2914,-9.7414 15.5642,19.2081 33.9849,37.1527 45.3925,53.138 48.1026,25.4154 90.7302,42.7558 128.8716,53.8155 z"
             style="fill:#f7e3ff;fill-opacity:1;fill-rule:nonzero;stroke:none"
             id="path178" /><path
             d="m 8181.0114,8017.0563 c -49.5674,18.8052 -103.4927,41.0895 -163.0945,54.6944 -12.1401,-19.4461 -22.742,-37.5188 -30.3044,-53.376 59.8398,-18.1827 116.9146,-42.0051 170.2174,-60.1877 5.7496,17.1389 13.8247,37.116 23.1815,58.8693 z"
             style="fill:#c3bfff;fill-opacity:1;fill-rule:nonzero;stroke:none"
             id="path180" /><path
             d="m 8157.8299,7958.187 c -53.3028,18.1826 -110.3776,42.005 -170.2174,60.1877 -7.5807,-15.8389 -12.1035,-29.4438 -12.1035,-39.9359 59.9863,-19.9039 118.3429,-44.2939 173.1655,-62.2202 0,10.4921 3.4058,24.8112 9.1554,41.9684 z"
             style="fill:#bbbaff;fill-opacity:1;fill-rule:nonzero;stroke:none"
             id="path182" /><path
             d="m 8017.9169,8071.7507 c -24.2618,-38.8738 -42.4079,-72.3277 -42.4079,-93.3119 -30.0114,9.9611 -60.4074,18.8052 -90.9865,25.1407 0,20.9659 17.1756,49.3843 39.5881,80.5494 32.7946,-0.9339 63.9963,-5.5665 93.8063,-12.3782 z"
             style="fill:#ebe5ff;fill-opacity:1;fill-rule:nonzero;stroke:none"
             id="path184" /><path
             d="m 7924.1106,8084.1289 c -22.4125,-31.1651 -39.5881,-59.5835 -39.5881,-80.5494 -30.5607,6.3539 -61.3046,10.1992 -91.9752,10.1992 0,20.9842 12.7077,41.4191 28.2719,60.6088 36.1272,7.9469 70.4967,10.6935 103.2914,9.7414 z"
             style="fill:#f8f2ff;fill-opacity:1;fill-rule:nonzero;stroke:none"
             id="path186" /><path
             d="m 8419.5649,7973.8977 c 0,-18.5672 6.8299,-34.6441 17.0474,-49.4576 -18.6954,-21.8448 -38.9288,-37.6836 -60.5356,-48.7068 -6.7201,9.4118 -11.2062,21.8815 -11.2062,40.4487 19.9221,13.0556 38.233,31.8425 54.6944,57.7157 z"
             style="fill:#7373ff;fill-opacity:1;fill-rule:nonzero;stroke:none"
             id="path188" /><path
             d="m 8364.8705,7916.182 c 0,-18.5672 4.4861,-31.0369 11.2062,-40.4487 -21.5885,-11.0231 -44.5503,-17.2121 -68.6656,-19.7207 -4.12,7.2145 -6.8849,18.2193 -6.8849,36.7864 22.9069,2.9847 44.4221,10.3273 64.3443,23.383 z"
             style="fill:#7979ff;fill-opacity:1;fill-rule:nonzero;stroke:none"
             id="path190" /><path
             d="m 8300.5262,7892.799 c 0,-18.5671 2.7649,-29.5719 6.8849,-36.7864 -48.2124,-5.0355 -101.0575,4.6326 -156.8872,19.7574 -1.1169,9.4117 -1.8494,21.8814 -1.8494,40.4486 54.8043,-17.9263 106.0563,-29.3706 151.8517,-23.4196 z"
             style="fill:#8888ff;fill-opacity:1;fill-rule:nonzero;stroke:none"
             id="path192" /><path
             d="m 8436.6123,7924.4401 c 10.2174,-14.8317 23.859,-28.4184 37.4822,-41.9867 -23.566,-12.9457 -48.0659,-22.3392 -73.3531,-28.8762 -8.9723,6.3722 -17.9263,12.7444 -24.6647,22.1561 21.6068,11.0232 41.8402,26.862 60.5356,48.7068 z"
             style="fill:#7b7bff;fill-opacity:1;fill-rule:nonzero;stroke:none"
             id="path194" /><path
             d="m 8376.0767,7875.7333 c 6.7384,-9.4117 15.6924,-15.7839 24.6647,-22.1561 -25.2873,-6.5186 -51.3985,-10.1808 -78.169,-11.6823 -5.5115,3.4425 -11.0231,6.8849 -15.1613,14.1177 24.1153,2.5086 47.0771,8.6976 68.6656,19.7207 z"
             style="fill:#8181ff;fill-opacity:1;fill-rule:nonzero;stroke:none"
             id="path196" /><path
             d="m 8307.4111,7856.0126 c 4.1382,-7.2328 9.6498,-10.6752 15.1613,-14.1177 -53.5774,-2.9846 -109.8649,2.7467 -167.9469,11.7007 -1.4831,6.3721 -2.9846,12.7443 -4.1016,22.1744 55.8297,-15.1248 108.6748,-24.7929 156.8872,-19.7574 z"
             style="fill:#9090ff;fill-opacity:1;fill-rule:nonzero;stroke:none"
             id="path198" /><path
             d="m 8148.6745,7916.2186 c 0,-18.5672 0.7325,-31.0369 1.8494,-40.4486 -55.8297,15.1247 -114.6441,35.7061 -174.8501,52.4971 -0.1098,15.2529 -0.1648,31.6045 -0.1648,50.1717 59.9863,-19.9039 118.3429,-44.2939 173.1655,-62.2202 z"
             style="fill:#b9b9ff;fill-opacity:1;fill-rule:nonzero;stroke:none"
             id="path200" /><path
             d="m 7975.509,7978.4388 c 0,-18.5672 0.055,-34.9188 0.1648,-50.1717 -30.103,8.4047 -60.5539,15.8572 -91.1329,21.2039 -0.018,17.6151 -0.018,35.5414 -0.018,54.1085 30.5791,-6.3355 60.9751,-15.1796 90.9865,-25.1407 z"
             style="fill:#e9e9ff;fill-opacity:1;fill-rule:nonzero;stroke:none"
             id="path202" /><path
             d="m 7884.5225,8003.5795 c 0,-18.5671 0,-36.4934 0.018,-54.1085 -30.5974,5.3651 -61.323,8.6244 -91.9936,8.6244 0,18.5489 0,37.1161 0,55.6833 30.6706,0 61.4145,-3.8453 91.9752,-10.1992 z"
             style="fill:#f8f8ff;fill-opacity:1;fill-rule:nonzero;stroke:none"
             id="path204" /><path
             d="m 8150.5239,7875.77 c 1.117,-9.4301 2.6185,-15.8023 4.1016,-22.1744 -58.0819,8.9723 -117.9217,21.1673 -178.5854,31.1284 -0.1465,14.1359 -0.2747,28.2902 -0.3663,43.5431 60.206,-16.791 119.0204,-37.3724 174.8501,-52.4971 z"
             style="fill:#bdbdff;fill-opacity:1;fill-rule:nonzero;stroke:none"
             id="path206" /><path
             d="m 7975.6738,7928.2671 c 0.092,-15.2529 0.2198,-29.4072 0.3663,-43.5431 -30.3411,4.9622 -60.8835,9.3934 -91.4992,12.5612 0,17.2854 0,34.5891 0,52.1858 30.579,-5.3467 61.0299,-12.7992 91.1329,-21.2039 z"
             style="fill:#eaeaff;fill-opacity:1;fill-rule:nonzero;stroke:none"
             id="path208" /><path
             d="m 7884.5409,7949.471 c 0,-17.5967 0,-34.9004 0,-52.1858 -30.6157,3.1678 -61.323,5.1087 -91.9936,5.1087 0,18.5672 0,37.1344 0,55.7015 30.6706,0 61.3962,-3.2593 91.9936,-8.6244 z"
             style="fill:#f9f9ff;fill-opacity:1;fill-rule:nonzero;stroke:none"
             id="path210" /><path
             d="m 8474.0945,7882.4534 c 13.6416,-13.5866 27.2648,-27.1732 37.4823,-42.005 -28.455,-4.0284 -57.1847,-6.9764 -86.1708,-9.0089 -6.7383,9.4117 -15.6923,15.7839 -24.6646,22.1377 25.2872,6.537 49.7871,15.9305 73.3531,28.8762 z"
             style="fill:#9696ff;fill-opacity:1;fill-rule:nonzero;stroke:none"
             id="path212" /><path
             d="m 8400.7414,7853.5772 c 8.9723,-6.3538 17.9263,-12.726 24.6646,-22.1377 -28.986,-2.0509 -58.2284,-3.1861 -87.6905,-3.6622 -4.1383,7.2328 -9.6498,10.6752 -15.1431,14.1176 26.7705,1.5015 52.8817,5.1637 78.169,11.6823 z"
             style="fill:#9a9aff;fill-opacity:1;fill-rule:nonzero;stroke:none"
             id="path214" /><path
             d="m 8322.5724,7841.8949 c 5.4933,-3.4424 11.0048,-6.8848 15.1431,-14.1176 -58.9059,-0.9155 -118.6725,0.8606 -178.9883,3.6622 -1.117,9.43 -2.6185,15.8022 -4.1017,22.1561 58.082,-8.954 114.3695,-14.6853 167.9469,-11.7007 z"
             style="fill:#a6a6ff;fill-opacity:1;fill-rule:nonzero;stroke:none"
             id="path216" /><path
             d="m 8511.5768,7840.4484 c 10.2357,-14.8135 17.0474,-30.8904 17.0474,-49.4576 -30.6707,0 -61.3413,0 -92.0119,0 0,18.5672 -4.4862,31.0369 -11.2063,40.4487 28.9861,2.0325 57.7158,4.9805 86.1708,9.0089 z"
             style="fill:#c1c1ff;fill-opacity:1;fill-rule:nonzero;stroke:none"
             id="path218" /><path
             d="m 8425.406,7831.4395 c 6.7201,-9.4118 11.2063,-21.8815 11.2063,-40.4487 -30.6707,0 -61.3413,0 -92.0119,0 0,18.5672 -2.7467,29.572 -6.8849,36.7865 29.4621,0.4761 58.7045,1.6113 87.6905,3.6622 z"
             style="fill:#c4c4ff;fill-opacity:1;fill-rule:nonzero;stroke:none"
             id="path220" /><path
             d="m 8337.7155,7827.7773 c 4.1382,-7.2145 6.8849,-18.2193 6.8849,-36.7865 -61.3413,0 -122.6826,0 -184.0238,0 0,18.5672 -0.7325,31.0369 -1.8494,40.4487 60.3158,-2.8016 120.0824,-4.5777 178.9883,-3.6622 z"
             style="fill:#cbcbff;fill-opacity:1;fill-rule:nonzero;stroke:none"
             id="path222" /><path
             d="m 8154.6255,7853.5956 c 1.4832,-6.3539 2.9847,-12.7261 4.1017,-22.1561 -60.3342,2.8015 -121.1994,6.6102 -182.3209,9.723 -0.1099,15.2529 -0.2381,29.4072 -0.3662,43.5615 60.6637,-9.9611 120.5035,-22.1561 178.5854,-31.1284 z"
             style="fill:#cacaff;fill-opacity:1;fill-rule:nonzero;stroke:none"
             id="path224" /><path
             d="m 7976.0401,7884.724 c 0.1281,-14.1543 0.2563,-28.3086 0.3662,-43.5615 -30.5791,1.5564 -61.1948,2.9481 -91.8654,3.9368 0,17.5967 0,34.9005 0,52.1859 30.6157,-3.1678 61.1581,-7.599 91.4992,-12.5612 z"
             style="fill:#eeeeff;fill-opacity:1;fill-rule:nonzero;stroke:none"
             id="path226" /><path
             d="m 7884.5409,7897.2852 c 0,-17.2854 0,-34.5892 0,-52.1859 -30.6524,0.9888 -61.323,1.5931 -91.9936,1.5931 0,18.5672 0,37.1343 0,55.7015 30.6706,0 61.3779,-1.9409 91.9936,-5.1087 z"
             style="fill:#fafaff;fill-opacity:1;fill-rule:nonzero;stroke:none"
             id="path228" /><path
             d="m 8158.7272,7831.4395 c 1.1169,-9.4118 1.8494,-21.8815 1.8494,-40.4487 -61.3413,0 -122.6826,0 -184.0055,0 0,18.5672 -0.073,34.9188 -0.1648,50.1717 61.1215,-3.1128 121.9867,-6.9215 182.3209,-9.723 z"
             style="fill:#e0e0ff;fill-opacity:1;fill-rule:nonzero;stroke:none"
             id="path230" /><path
             d="m 7976.4063,7841.1625 c 0.092,-15.2529 0.1648,-31.6045 0.1648,-50.1717 -30.6707,0 -61.3413,0 -92.0119,0 0,18.5672 0,36.4935 -0.018,54.1085 30.6706,-0.9887 61.2863,-2.3804 91.8654,-3.9368 z"
             style="fill:#f5f5ff;fill-opacity:1;fill-rule:nonzero;stroke:none"
             id="path232" /><path
             d="m 7884.5409,7845.0993 c 0.018,-17.615 0.018,-35.5413 0.018,-54.1085 -30.6707,0 -61.3413,0 -92.0119,0 0,18.5672 0,37.1344 0,55.7016 30.6706,0 61.3412,-0.6043 91.9936,-1.5931 z"
             style="fill:#fcfcff;fill-opacity:1;fill-rule:nonzero;stroke:none"
             id="path234" /><path
             d="m 7792.5473,8590.9908 c -33.6004,0 -67.1825,0 -100.7828,0 0,-27.1366 -3.6988,-60.5355 -8.4047,-96.2966 29.2424,-7.0497 58.2284,-13.2937 90.7118,-10.0709 10.4006,41.4923 18.4757,79.2309 18.4757,106.3675 z"
             style="fill:#ffffff;fill-opacity:1;fill-rule:nonzero;stroke:none"
             id="path236" /><path
             d="m 7774.0716,8484.6233 c -10.4005,-41.5107 -23.1632,-86.7751 -32.5383,-128.9815 -15.0332,-5.1453 -27.7592,-3.1861 -39.4415,2.6551 7.1778,42.005 17.1938,86.6285 25.4154,127.5166 14.96,-2.0509 30.3227,-2.8016 46.5644,-1.1902 z"
             style="fill:#fae8ff;fill-opacity:1;fill-rule:nonzero;stroke:none"
             id="path238" /><path
             d="m 7727.5072,8485.8135 c -8.2216,-40.8881 -18.2376,-85.5116 -25.4154,-127.5166 -11.6823,5.8411 -22.3209,15.5459 -33.1792,25.9098 4.0283,36.585 9.7413,74.7265 14.4472,110.4875 14.6304,-3.5157 29.1875,-6.8482 44.1474,-8.8807 z"
             style="fill:#fbebff;fill-opacity:1;fill-rule:nonzero;stroke:none"
             id="path240" /><path
             d="m 7691.7645,8590.9908 c 0,-54.2549 -14.7952,-133.5957 -22.8519,-206.7841 -21.7167,20.7095 -44.3305,44.0009 -77.9126,44.0009 0,54.2733 0,108.5283 0,162.7832 33.5821,0 67.1824,0 100.7645,0 z"
             style="fill:#ffffff;fill-opacity:1;fill-rule:nonzero;stroke:none"
             id="path242" /><path
             d="m 7741.5333,8355.6418 c -9.3568,-42.1881 -15.3628,-81.3184 -12.2683,-110.5242 -13.8246,-8.6976 -25.1773,-6.6834 -35.4863,1.2269 -3.1678,30.5058 1.1535,69.929 8.3131,111.9524 11.6823,-5.8412 24.4083,-7.8004 39.4415,-2.6551 z"
             style="fill:#f7d8ff;fill-opacity:1;fill-rule:nonzero;stroke:none"
             id="path244" /><path
             d="m 7702.0918,8358.2969 c -7.1596,-42.0234 -11.4809,-81.4466 -8.3131,-111.9524 -10.2907,7.9102 -19.556,21.7166 -29.1875,36.6033 -2.0508,29.6086 0.293,64.6555 4.3214,101.2589 10.8583,-10.3639 21.4969,-20.0687 33.1792,-25.9098 z"
             style="fill:#f8dcff;fill-opacity:1;fill-rule:nonzero;stroke:none"
             id="path246" /><path
             d="m 7729.265,8245.1176 c 3.0946,-29.2057 15.2896,-48.487 42.3164,-51.0139 -13.2754,-10.309 -27.0085,-11.0048 -41.1628,-6.244 -22.7969,6.3722 -33.4538,27.9789 -36.6399,58.4848 10.309,-7.9103 21.6617,-9.9245 35.4863,-1.2269 z"
             style="fill:#f5cfff;fill-opacity:1;fill-rule:nonzero;stroke:none"
             id="path248" /><path
             d="m 7693.7787,8246.3445 c 3.1861,-30.5059 13.843,-52.1126 36.6399,-58.4848 -14.1725,4.7608 -28.7846,14.9599 -43.8544,26.4591 -13.4951,14.8318 -19.9222,39.0021 -21.973,68.629 9.6315,-14.8867 18.8968,-28.6931 29.1875,-36.6033 z"
             style="fill:#f6d2ff;fill-opacity:1;fill-rule:nonzero;stroke:none"
             id="path250" /><path
             d="m 7668.9126,8384.2067 c -4.0284,-36.6034 -6.3722,-71.6503 -4.3214,-101.2589 -9.6315,14.8684 -19.6292,30.8538 -31.4214,43.1037 -0.6775,27.9973 0.018,57.7157 1.2269,87.9286 12.5612,-8.423 23.6575,-19.4095 34.5159,-29.7734 z"
             style="fill:#fae5ff;fill-opacity:1;fill-rule:nonzero;stroke:none"
             id="path252" /><path
             d="m 7634.3967,8413.9801 c -1.2086,-30.2129 -1.9044,-59.9313 -1.2269,-87.9286 -11.7921,12.2499 -25.3788,20.7645 -42.1698,20.7645 0,27.1366 0,54.2733 0,81.3916 16.791,0 30.8354,-5.8228 43.3967,-14.2275 z"
             style="fill:#fcf1ff;fill-opacity:1;fill-rule:nonzero;stroke:none"
             id="path254" /><path
             d="m 7664.5912,8282.9478 c 2.0508,-29.6269 8.4779,-53.7972 21.973,-68.629 -15.0515,11.4992 -30.5425,24.2802 -46.4729,34.1863 -4.2298,23.2731 -6.2623,49.5491 -6.9215,77.5464 11.7922,-12.2499 21.7899,-28.2353 31.4214,-43.1037 z"
             style="fill:#f8dcff;fill-opacity:1;fill-rule:nonzero;stroke:none"
             id="path256" /><path
             d="m 7633.1698,8326.0515 c 0.6592,-27.9973 2.6917,-54.2733 6.9215,-77.5464 -15.9304,9.9062 -32.3003,16.9376 -49.0913,16.9376 0,27.1183 0,54.2549 0,81.3733 16.791,0 30.3777,-8.5146 42.1698,-20.7645 z"
             style="fill:#fbebff;fill-opacity:1;fill-rule:nonzero;stroke:none"
             id="path258" /><path
             d="m 7771.5814,8194.1037 c 56.086,-5.2552 85.4566,-13.9162 97.9263,-25.2506 -13.8064,-8.6794 -33.93,-10.9316 -57.3862,-9.3935 -9.9794,11.2062 -34.3694,20.6912 -81.7029,28.4001 14.1543,-4.7608 27.8874,-4.065 41.1628,6.244 z"
             style="fill:#f5ccff;fill-opacity:1;fill-rule:nonzero;stroke:none"
             id="path260" /><path
             d="m 7730.4186,8187.8597 c 47.3335,-7.7089 71.7235,-17.1939 81.7029,-28.4001 -23.4561,1.5198 -50.2449,6.8116 -77.3998,13.2021 -5.7496,14.7036 -20.1053,28.5466 -48.1575,41.6571 15.0698,-11.4992 29.6819,-21.6983 43.8544,-26.4591 z"
             style="fill:#f5cfff;fill-opacity:1;fill-rule:nonzero;stroke:none"
             id="path262" /><path
             d="m 7869.5077,8168.8531 c 12.488,-11.3344 8.0934,-25.3605 -3.296,-41.3276 -15.0332,-5.1636 -35.5596,-6.9764 -58.9242,-6.8116 10.3639,14.5937 14.8134,27.5212 4.834,38.7457 23.4562,-1.5381 43.5798,0.7141 57.3862,9.3935 z"
             style="fill:#f6d3ff;fill-opacity:1;fill-rule:nonzero;stroke:none"
             id="path264" /><path
             d="m 7812.1215,8159.4596 c 9.9794,-11.2245 5.5299,-24.152 -4.834,-38.7457 -23.3829,0.1648 -49.604,2.3255 -76.0449,5.127 6.3539,16.553 9.2104,32.1172 3.4791,46.8208 27.1549,-6.3905 53.9437,-11.6823 77.3998,-13.2021 z"
             style="fill:#f7d6ff;fill-opacity:1;fill-rule:nonzero;stroke:none"
             id="path266" /><path
             d="m 7686.5642,8214.3188 c 28.0522,-13.1105 42.4079,-26.9535 48.1575,-41.6571 -27.1733,6.3722 -54.6945,13.843 -79.6521,19.7208 -1.7579,18.9151 -6.2257,37.5921 -14.9783,56.1226 15.9304,-9.9061 31.4214,-22.6871 46.4729,-34.1863 z"
             style="fill:#f7d8ff;fill-opacity:1;fill-rule:nonzero;stroke:none"
             id="path268" /><path
             d="m 7640.0913,8248.5051 c 8.7526,-18.5305 13.2204,-37.2075 14.9783,-56.1226 -24.9394,5.8594 -47.2786,10.1442 -64.0696,10.1442 0,20.9659 0,41.9318 0,62.916 16.791,0 33.1609,-7.0314 49.0913,-16.9376 z"
             style="fill:#fae8ff;fill-opacity:1;fill-rule:nonzero;stroke:none"
             id="path270" /><path
             d="m 7734.7217,8172.6617 c 5.7313,-14.7036 2.8748,-30.2678 -3.4791,-46.8208 -26.4408,2.8016 -53.1014,6.244 -77.3632,8.9906 2.0325,19.4644 2.9663,38.6176 1.1902,57.551 24.9576,-5.8778 52.4788,-13.3486 79.6521,-19.7208 z"
             style="fill:#f8deff;fill-opacity:1;fill-rule:nonzero;stroke:none"
             id="path272" /><path
             d="m 7655.0696,8192.3825 c 1.7761,-18.9334 0.8423,-38.0866 -1.1902,-57.551 -24.2619,2.7284 -46.0884,4.7792 -62.8794,4.7792 0,20.9659 0,41.9501 0,62.916 16.791,0 39.1302,-4.2848 64.0696,-10.1442 z"
             style="fill:#fbecff;fill-opacity:1;fill-rule:nonzero;stroke:none"
             id="path274" /><path
             d="m 7866.2117,8127.5255 c -30.0664,-10.309 -82.0874,-7.2877 -134.9691,-1.6846 -6.3721,-16.553 -16.2417,-34.0764 -24.5182,-52.7168 40.943,-1.3734 81.6114,-1.941 114.0948,1.2634 15.5642,19.2081 33.9849,37.1527 45.3925,53.138 z"
             style="fill:#fae5ff;fill-opacity:1;fill-rule:nonzero;stroke:none"
             id="path276" /><path
             d="m 7820.8192,8074.3875 c -32.4834,-3.2044 -73.1518,-2.6368 -114.0948,-1.2634 -8.2765,-18.6222 -14.9599,-38.3612 -14.9599,-59.3454 33.6003,0 67.1824,0 100.7828,0 0,20.9842 12.7077,41.4191 28.2719,60.6088 z"
             style="fill:#fdf7ff;fill-opacity:1;fill-rule:nonzero;stroke:none"
             id="path278" /><path
             d="m 7731.2426,8125.8409 c -52.8816,5.6031 -106.6605,13.7698 -140.2426,13.7698 0,-20.9659 0,-41.9501 0,-62.916 33.5821,0 74.7997,-2.179 115.7244,-3.5706 8.2765,18.6404 18.1461,36.1638 24.5182,52.7168 z"
             style="fill:#fbebff;fill-opacity:1;fill-rule:nonzero;stroke:none"
             id="path280" /><path
             d="m 7706.7244,8073.1241 c -40.9247,1.3916 -82.1423,3.5706 -115.7244,3.5706 0,-20.9659 0,-41.9318 0,-62.916 33.5821,0 67.1824,0 100.7645,0 0,20.9842 6.6834,40.7232 14.9599,59.3454 z"
             style="fill:#fdf9ff;fill-opacity:1;fill-rule:nonzero;stroke:none"
             id="path282" /><path
             d="m 7792.5473,8013.7787 c 0,-74.2504 0,-148.5191 0,-222.7879 -67.1825,0 -134.3649,0 -201.5473,0 0,74.2688 0,148.5375 0,222.7879 67.1824,0 134.3648,0 201.5473,0 z"
             style="fill:#ffffff;fill-opacity:1;fill-rule:nonzero;stroke:none"
             id="path284" /></g></g></g></g>
             
             </svg>
